/* XPM */
static char *_2bc09bc8b35400ec1d17152555fd050p8DRPlCRaB9hkOSb[] = {
/* columns rows colors chars-per-pixel */
"64 64 39 1 ",
"  c None",
". c #FF4555",
"X c #FD4656",
"o c #FD4657",
"O c #FC4757",
"+ c #FD4757",
"@ c #FE4656",
"# c #FF4656",
"$ c #F14959",
"% c #F24959",
"& c #F44959",
"* c #F64858",
"= c #57778A",
"- c #597589",
"; c #5E7588",
": c #5F7588",
"> c #56788B",
", c #57788B",
"< c #52798C",
"1 c #637487",
"2 c #607588",
"3 c #4E8091",
"4 c #4D8192",
"5 c #0DC2BF",
"6 c #0CC3C0",
"7 c #03CBC6",
"8 c #00CCC5",
"9 c #03CCC6",
"0 c #02CCC7",
"q c #00CEC8",
"w c #01CEC8",
"e c #00CFC9",
"r c #02CEC9",
"t c #00D1CA",
"y c #96E6F9",
"u c #97E7F9",
"i c #98E7F9",
"p c #98E7FA",
"a c #99E7FA",
/* pixels */
"@@@@@@                                                    @@@@@@",
"@@@@@@                       qqqqqq                       @@@@@@",
"@@@@@*2<,,,<=<,,<=,          qqqqqq         ,,,,,<,,=,,,<:&@@@@@",
"@@@@@%2<,,,,,,,,,,,,,        qqqqqq        ,,,<,,,,,<,,,<2&@@@@@",
"@@@@@@             ,,,       qqqqqq       ,,,             @@@@@@",
"@@@@@@              ,,       qqttqq       ,,              @@@@@ ",
"                     ,,      qq667r      ,,                     ",
"                     ,         ,,         ,                     ",
"                     ,         =-         ,                     ",
"                     ,         ,,         ,                     ",
"                     ,         ,,         ,                     ",
"pp  pppppy  p  pp    ,         ,,         ,    ap  p  papppa  pp",
"pa  aaaaaa  p  pp    ,         ,,         ,    aa  a  aaaaaa  aa",
"pp  aa  aa  p  pp    ,         ,,         ,    aa  a  aa  aa  aa",
"aa  aa  aa  a  pp    ,         ,,         ,    aa  a  aa  aa  aa",
"aa  aa  aa  a  ap    ,         ,,         ,    aa  a  aa  aa  aa",
"aa  aa  pp  a  aa    ,         ,,         ,    aa  a  pa  aa  aa",
"aa  aapppp  a  aa    ,         ,,         ,    aa  a  aappaa  aa",
"pp  papppp  a  ap    ,         ,,         ,    yp  p  ppaaap  pp",
"                     ,         ,,         ,                     ",
"                     ,         ,,         ,                     ",
"                     ,                    ,                     ",
"                     ,,                  ,,                     ",
"                     ,                    ,                     ",
"                                                                ",
"                                                                ",
"                                                                ",
"                      99                                        ",
"   99    99 999999  99999   999999 99   88898999 998999  9999   ",
"   999   99 88     99   99  9   89 99   88   9   99     99      ",
"   9899  99 88     9     99 98  88 99   99   9   89     98      ",
"   98 88 98 88999  9     98 889988  99 99    9   899999  899    ",
"   99  9 89 99     9     99 99  88   999     9   99       99    ",
"   99  9999 89     99    9  9    8    9      9   99        99   ",
"   99   989 88      99 999  88  99    9      9   89      989    ",
"   99    89 889999   8999   88999     9      9   899999 998     ",
"                                                                ",
"                                                                ",
"                                                                ",
"                                                                ",
"                     ,                    ,                     ",
"                     ,,                  ,,                     ",
"                     ,                    ,                     ",
"                     ,         ,,         ,                     ",
"                     ,         ,,         ,                     ",
"aa  aaaaaa  a  aa    ,         ,,         ,    aa  a  aaaaaa  pa",
"aa  aappaa  a  aa    ,         ,,         ,    aa  a  aappaa  aa",
"aa  aa  aa  a  aa    ,         ,,         ,    aa  a  aa  aa  aa",
"aa  aa  aa  a  aa    ,         ,,         ,    pa  a  aa  aa  aa",
"aa  aa  aa  a  aa    ,         ,,         ,    pa  a  aa  aa  aa",
"aa  aa  aa  a  aa    ,         ,,         ,    pa  a  aa  aa  aa",
"aa  aaaaaa  a  aa    ,         ,,         ,    pa  a  aaaaaa  aa",
"ya  apapay  a  aa    ,         ,,         ,    pa  a  yapapp  ay",
"                     ,         ,,         ,                     ",
"                     ,         ,,         ,                     ",
"                     ,         --         ,                     ",
"                     ,         33         ,                     ",
"                     ,,      qq77qq      ,,                     ",
"@@@@@@              ,,       qqtqqq       ,,              O@@@@@",
"@@@@@@             ,,,       qqqqqq       ,,,             @@@@@@",
"@@@@@%:<=<,,,,,<,,,,,        qqqqqq        ,=<,,,,,<,,,=<:%@@@@@",
"@@@@@&1<,,,,,,,,,,,          qqqqqq          ,,,,,,=,,,<<1*@@@@@",
"@@@@@@                       qqqqqq                       @@@@@@",
" @@@@                                                     @@@@@@"
};
