/* XPM */
static char *f48857c3757040ef84702e6b0a7c5801C8JjewcZFK5eYcLA[] = {
/* columns rows colors chars-per-pixel */
"32 32 24 1 ",
"  c None",
". c #87697B",
"X c #846A7C",
"o c #FF4555",
"O c #FE4656",
"+ c #FF4656",
"@ c #5F6F85",
"# c #4E7A8E",
"$ c #56788B",
"% c #616D83",
"& c #606E84",
"* c #16B8B9",
"= c #14BBBA",
"- c #11BEBC",
"; c #0EC0BE",
": c #00CCC5",
"> c #00CEC8",
", c #01CEC8",
"< c #00D1CA",
"1 c #00D2CB",
"2 c #97E7F9",
"3 c #98E7F9",
"4 c #98E7FA",
"5 c #99E7FA",
/* pixels */
"+++            >>            +++",
"+++.#$$$$$     >>     $$$$$$X+++",
"+++      $$    <<>   $       +++",
"          $    ==    $          ",
"          $     %    $          ",
"          $    $$    $      4   ",
"5 555 5 5 $    $$    $ 5 5 544 4",
"5 5 5 5 5 $    $$    $ 5 5 5 4 4",
"5 5 5 5 5 $    $$    $ 4 5 545 5",
"5  55     $    $$    $     45  4",
"          $          $          ",
"          $          $          ",
"                                ",
"                                ",
"  :  ::   ::: : ::  : : ::  ::  ",
"  ::  :: :   :: : : : :  :  :   ",
"  : : :  :  : : : ::  :  :   :  ",
"  : : ::: ::: :::  :  :  :: ::  ",
"                                ",
"                                ",
"          $          $          ",
"          $          $          ",
"5  55     $    $$    $     45  4",
"5 5 5 5 5 $    $$    $ 5 5 5 5 5",
"5 5 5 5 5 $    $$    $ 5 5 5 5 5",
"5 555 5 5 $    $$    $ 5 5 555 5",
"          $    $$    $          ",
"          $    &@    $          ",
"          $    ;-    $          ",
"+++      $$    <<>   $$      +++",
"+++.#$$$$$     >>     $$$$$#.+++",
"+++                          +++"
};
