/* XPM */
static char *c70ae4a229ef484eae7fff06480cb8d1xE8y85eFP9GJwlV6[] = {
/* columns rows colors chars-per-pixel */
"16 16 16 1 ",
"  c None",
". c #F34757",
"X c #FF4252",
"o c #FF4353",
"O c #FF4454",
"+ c #FF4555",
"@ c #F24858",
"# c #F24A5A",
"$ c #F44959",
"% c #00CCC5",
"& c #01CDC8",
"* c #00CEC8",
"= c #00CFC9",
"- c #98E7FA",
"; c #99E7FA",
": c #98E8FB",
/* pixels */
"+$     &=     @+",
"o@     &&     @o",
"                ",
";;;         ;;;:",
";;;          ;;;",
"                ",
"                ",
" % %   %%   %   ",
"   %   %        ",
"                ",
"                ",
";::          ;;;",
";:;          ;;;",
"                ",
"+@     &&     @o",
"+@     ==     $+"
};
