/* XPM */
static char *cb0fd09e5d9b472dff03f5e0bac6c7acNISzImVBPI8ZrN9K[] = {
/* columns rows colors chars-per-pixel */
"128 128 80 1 ",
"  c None",
". c #AA5D6F",
"X c #AB5E6F",
"o c #AF5C6E",
"O c #B15C6E",
"+ c #A35F71",
"@ c #A55F71",
"# c #A65F71",
"$ c #A36072",
"% c #A46072",
"& c #FF4251",
"* c #FF4252",
"= c #FF4352",
"- c #FF4454",
"; c #FF4555",
": c #FD4656",
"> c #FD4757",
", c #FE4656",
"< c #FF4656",
"1 c #FE4657",
"2 c #FE4757",
"3 c #F74858",
"4 c #C95566",
"5 c #D65263",
"6 c #5B7387",
"7 c #5E7085",
"8 c #5D7186",
"9 c #56788B",
"0 c #57788B",
"q c #56798B",
"w c #55798C",
"e c #56798C",
"r c #457D91",
"t c #467C90",
"y c #477C90",
"u c #467D91",
"i c #487C90",
"p c #616D83",
"a c #3996A0",
"s c #1BB4B6",
"d c #10BEBD",
"f c #2AA4AA",
"g c #23ACB0",
"h c #24ACB0",
"j c #418E9B",
"k c #408F9B",
"l c #00CCC5",
"z c #00CEC8",
"x c #01CEC8",
"c c #00CFC9",
"v c #02CEC8",
"b c #02CEC9",
"n c #03CEC9",
"m c #05CFC9",
"M c #04CECA",
"N c #00D0C9",
"B c #00D0CA",
"V c #00D1CA",
"C c #00D3CB",
"Z c #00D3CC",
"A c #00D5CD",
"S c #8DE5F6",
"D c #8EE5F6",
"F c #92E6F7",
"G c #92E6F8",
"H c #93E6F8",
"J c #94E6F8",
"K c #95E6F8",
"L c #95E6F9",
"P c #96E6F8",
"I c #96E6F9",
"U c #97E6F9",
"Y c #96E7F9",
"T c #97E7F9",
"R c #97E7FA",
"E c #98E7F9",
"W c #98E7FA",
"Q c #99E7FA",
"! c #9AE7FA",
"~ c #9AE7FB",
/* pixels */
"                                                                                                                                ",
"  <<<<<<<<<<                                                                                                         <<<<<<<<<<<",
" <<<<<<<<<<<                                                MzzzzzzzV                                                <<<<<<<<<<<",
" <<<<<<<<<<<                                               zlzzzzzzzlMN                                              <<<<<<<<<<<",
" <<<<<<<<<<<                                               zzzzzzzzzzzz                                             4<<<<<<<<<<<",
" <<<<<<<<<<=Xr99999999999999999999999999                   zzzzzzzzzzzM                  99999999999999999999999999i+=<<<<<<<<<<",
" <<<<<<<<<<=#r999999999999999999999999999                  zzzzzzzzzzzz                 999999999999999999999999999i#&<<<<<<<<<<",
" <<<<<<<<<<=#i9999999999999999999999999999                 zzzzzzzzzzzz                9999999999999999999999999999r%=<<<<<<<<<<",
" <<<<<<<<<<=Ore9999999999999999999999999999                zzzzzzzzzzzz               99999                         5<<<<<<<<<<<",
" <<<<<<<<<<<                          999999               zzzzzzzzzzzz              99999                           <<<<<<<<<<<",
" <<<<<<<<<<<                           999999              zzzzzzzzzzzM             99999                            <<<<<<<<<<<",
" <<<<<<<<<<<                            99999              zzzzzzzzzzzz             9999                             <<<<<<<<<3 ",
"                                         9999              zzzzzzzzzzzM             999                                         ",
"                                          999              zzzVZZZVzlM              999                                         ",
"                                          999                 fjjja                 999                                         ",
"                                          999                  6667                 999                                         ",
"                                          999                  9099                 999                                         ",
"                                          999                  9999                 999                                         ",
"                                          999                  9999                 999                                         ",
"                                          999                  9999                 999                                         ",
"                                          999                  9999                 999                                         ",
"                                          999                  9999                 999                                         ",
"                 J                        999                  9999                 999        QQ     JQQ     QQQJQQQRQR     QQ ",
" DQ~J    JQQQQQQQQQH    QQQ    JQQ        999                  9999                 999       QQQQ    QQQ    JQQQQQQQQQQ    JQQH",
" QQQQ    QQQQQQQQQQQ    QQQ    QQQQ       999                  9999                 999       QQQQ    QQQ    ~QQQQQQQQQQ    QQQQ",
" QQQQ    QQQQQQQQQQQ    QQQ    QQQQ       999                  9999                 999       QQQQ    QQQ    QQQQQQQQQQQ    QQQQ",
" QQQQ    QQQQ   QQQQ    QQQ    QQQQ       999                  9999                 999       QQQQ    QQQ    QQQQ    QQQ    QQQQ",
" QQQQ    QQQ    QQQQ    QQQ    QQQQ       999                  9999                 999       QQQQ    QQQ    QQQQ    QQQ    QQQQ",
" QQQQ    QQQ    QQQQ    QQQ    QQQQ       999                  9999                 999       QQQQ    QQQ    QQQQ    QQQ    QQQQ",
" QQQQ    QQQ    QQQQ    QQQ    QQQQ       999                  9999                 999       QQQQ    QQQ    QQQQ    QQQ    QQQQ",
" QQQQ    QQQ    QQQQ    QQQ    QQQQ       999                  9999                 999       QQQQ    QQQ    QQQQ    QQQ    QQQQ",
" QQQQ    QQQ    QQQQ    QQQ    QQQQ       999                  9999                 999       QQQQ    QQQ    QQQQ    QQQ    QQQQ",
" QQQQ    QQQ    QQQQ    QQQ    QQQQ       00w                  9999                 999       QQQQ    QQQ    QQQQ    QQQ    QQQQ",
" QQQQ    QQQ    QQQQ    QQQ    QQQQ       009                  9999                 999       QQQQ    QQQ    QQQQ    QQQ    QQQQ",
" QQQQ    QQQ    QQQQ    QQQ    QQQQ       e09                  9999                 999       QQQQ    QQQ    QQQQ   RQQQ    QQQQ",
" QQQQ    QQQQJJQQQQQ    QQQ    QQQQ       009                  9999                 999       QQQQ    QQQ    QQQQQRQQQQQ    QQQQ",
" QQQQ    QQQQQQQQQQQ    QQQ    QQQQ       999                  9999                 999       QQQQ    QQQ    QQQQQQQQQQQ    QQQQ",
" QQ~Q    QQQQQQQQQQQ    QQQ    QQQQ       999                  9999                 999        QQQ    QQQ    RQQQQQQQQQQ    RQRQ",
"  JJ     HQQQQQQQQJ     QQH     QJ        999                  9999                 999                        ~                ",
"                                          999                  9999                 999                                         ",
"                                          999                  9999                 999                                         ",
"                                          999                  999                  999                                         ",
"                                          999                   e                   999                                         ",
"                                          999                                       999                                         ",
"                                          999                                       999                                         ",
"                                          999                                       999                                         ",
"                                          999e                                      999                                         ",
"                                          999                                       e9                                          ",
"                                                                                                                                ",
"                                                                                                                                ",
"                                                                                                                                ",
"                                                                                                                                ",
"                                                                                                                                ",
"                                                                                                                                ",
"                                                                                                                                ",
"                                            llll                                                                                ",
"       llll        lll   lllllllllll      llllllll      lllllllllll    lll       lll llllllllllll  lllllllllll     lllllll      ",
"       lllll       lll   lllllllllll     llllllllll     llllllllllll   lll       lll llllllllllll  lllllllllll    llllllll      ",
"       lllll       lll   lll            lllll  lllll    llll     lll   lll       lll     llll      llll          llllllll       ",
"       llllll      lll   lll           llll      llll   lll      llll  lll       lll      lll      lll           lll            ",
"       lllllll     lll   lll           lll        lll   lll       lll  lll       lll      lll      lll           lll            ",
"       lll lll     lll   lll          lll         llll  lll      lll   llll     llll      lll      lll           lll            ",
"       lll  lll    lll   llllllllll   lll          lll   lllllllllll    llll   llll       lll      lllllllllll   lllll          ",
"       lll  llll   lll   llllllllll   lll          lll   llllllllll      lll  llll        lll      lllllllllll    llllll        ",
"       lll   llll  lll   llllllllll   lll          lll   lllllllllll     lllllllll        lll      lllllllllll      lllll       ",
"       lll    lll  lll   lll          lll          lll   ll      llll     lllllll         lll      lll               llll       ",
"       lll     lll lll   lll          lll         llll  lll       lll      lllll          lll      lll                llll      ",
"       lll     lllllll   lll           lll        lll   lll       lll       lll           lll      lll                llll      ",
"       lll      llllll   lll           llll      llll   lll       lll       lll           lll      lll                lll       ",
"       lll       lllll   llll      l    lllll  lllll    llll    lllll       lll           lll      llll      l   llllllll       ",
"       lll        llll   lllllllllll     llllllllll     llllllllllll        lll           lll      lllllllllll   lllllll        ",
"       lll        llll   lllllllllll      llllllll      lllllllllll         lll           lll      lllllllllll   llllll         ",
"                                             ll                                                                                 ",
"                                                                                                                                ",
"                                                                                                                                ",
"                                                                                                                                ",
"                                                                                                                                ",
"                                                                                                                                ",
"                                                                                                                                ",
"                                                                                                                                ",
"                                                                                                                                ",
"                                          999                                       990                                         ",
"                                          9999                                     e999                                         ",
"                                          999                                       999                                         ",
"                                          999                                       999                                         ",
"                                          999                                       999                                         ",
"                                          999                  999                  999                                         ",
"                                          999                  9999                 999                                         ",
"                                          999                  9999                 999                                         ",
"                                          999                  9999                 999                                         ",
"  JJ     FQQQQQQQQQ     QJJ     JJ        999                  9999                 999        JQ     HQQ     JQQQQQQQQH     JJ ",
" QQQQ    QQQQQQQQQQQ    Q~Q    QQQQ       999                  9999                 999       QQQQ    QQQ    Q~QQQQQQQQQ    ~QQQ",
" QQQQ    QQQQQQQQQQQ    QQQ    QQQQ       999                  9999                 999       QQQQ    QQQ    QQQQQQQQQQQ    QQQQ",
" QQQQ    QQQQJQJQQQQ    QQQ    QQQQ       999                  9999                 999       QQQQ    QQQ    QQQQJQJQQQQ    QQQQ",
" QQQQ    QQQ    QQQQ    QQQ    QQQQ       999                  9999                 999       QQQQ    QQQ    QQQQ    QQQ    QQQQ",
" QQQQ    QQQ    QQQQ    QQQ    QQQQ       999                  9999                 999       QQQQ    QQQ    QQQQ    QQQ    QQQQ",
" QQQQ    QQQ    QQQQ    QQQ    QQQQ       999                  9999                 999       QQQQ    QQQ    QQQQ    QQQ    QQQQ",
" QQQQ    QQQ    QQQQ    QQQ    QQQQ       999                  9999                 999       QQQQ    QQQ    QQQQ    QQQ    QQQQ",
" QQQQ    QQQ    QQQQ    QQQ    QQQQ       999                  9999                 999       QQQQ    QQQ    QQQQ    QQQ    QQQQ",
" QQQQ    QQQ    QQQQ    QQQ    QQQQ       999                  9999                 999       QQQQ    QQQ    QQQQ    QQQ    QQQQ",
" QQQQ    QQQ    QQQQ    QQQ    QQQQ       999                  9999                 999       QQQQ    QQQ    QQQQ    QQQ    QQQQ",
" QQQQ    QQQ    QQQQ    QQQ    QQQQ       999                  9999                 999       QQQQ    QQQ    QQQQ    QQQ    QQQQ",
" QQQQ    QQQQ   QQQQ    QQQ    QQQQ       999                  9999                 999       QQQQ    QQQ    QQQQ   QQQQ    QQQQ",
" QQQQ    QQQQQQQQQQQ    QQQ    QQQQ       999                  9999                 999       QQQQ    QQQ    QQQQQQQQQQQ    QQQQ",
" QQQ~    QQQQQQQQQQR    QQQ    QQQQ       999                  9999                 999       QQQQ    QQQ    QQQQQQQQQQQ    QQQQ",
" DQQJ    QQQQQQQQQQH    QQR    RQQ        999                  9999                 999        QQR    RQQ    HQQQQQQQQQR    JQQD",
"                                          999                  9999                 999                                         ",
"                                          999                  9999                 999                                         ",
"                                          999                  9999                 999                                         ",
"                                          999                  9999                 999                                         ",
"                                          999                  9999                 999                                         ",
"                                          999                  9999                 999                                         ",
"                                          999                  e999                 999                                         ",
"                                          999                  888p                 999                                         ",
"                                          999               MzdhghszV               999                                         ",
"                                          999              zzzZZZZZzlV              999                                         ",
"                                         99999             zzzzzVzzzzzl             999e                                        ",
" <<<<<<<<<<<                            09999              zzzzzzzzzzzM             99999                            ><<<<<<<<<<",
" <<<<<<<<<<<<                          e99999              zzzzzzzzzzzz             999999                           <<<<<<<<<<<",
" <<<<<<<<<<<                          e99999               zzzzzzzzzzzz              999999                          <<<<<<<<<<<",
" <<<<<<<<<<=or99999999999999999999999999ee0                zzzzzzzzzzzM               99999999999999999999999999999rO=<<<<<<<<<<",
" <<<<<<<<<<=+y9999999999999999999999999990                 zzzzzzzzzzVl                9999999999999999999999999999i%=<<<<<<<<<<",
" <<<<<<<<<<=+y999999999999999999999999999                  lzzzzzzzzzzl                 999999999999999999999999999i#=<<<<<<<<<<",
" <<<<<<<<<<=.y99999999999999999999999999                   VzzzzzzzzzzM                  99999999999999999999999999y.=<<<<<<<<<<",
" <<<<<<<<<<<                                               lzzzzzzzzzzz                                              <<<<<<<<<<<",
" <<<<<<<<<<<                                               Mzzzzzzzzzz                                               <<<<<<<<<<<",
" <<<<<<<<<<<                                                                                                         <<<<<<<<<<<",
"                                                                                                                     <<<<<<<<<< "
};
